# xmcd
#
# Track frame offsets:
#	150
#	22660
#	36155
#	51942
#	69872
#	81198
#	92449
#	105448
#	118509
#	132253
#	143513
#	157132
#
# Disc length: 2244 seconds
#
# Revision: 0
# Processed by: cddbd v1.5.1PL2 Copyright (c) Steve Scherf et al.
# Submitted via: dBpowerAMP V4.0
#
DISCID=8d08c20c
DTITLE=Various Artist - Shoutin' The Blues [CD1]
DYEAR=1900
DGENRE=Blues
TTITLE0=B.B. King - The Thrill Is Gone (Live)
TTITLE1=Big Joe Turner - Shake, Rattle And Roll
TTITLE2=Eddie "Clean Head" Vinson
TTITLE3=Lightnin' Hopkins - Shake That Thing
TTITLE4=John Lee Hooker - Boom Boom
TTITLE5=Ray Charles - A Sentimental Blues
TTITLE6=Charles Brown - Rockin' Blues
TTITLE7=Big Maybelle - I Won't Cry Anymore
TTITLE8=Leadbelly - Where Did You Sleep Last Night
TTITLE9=Elmore James - Look On Yonder Wall
TTITLE10=Dinah Washington - Blues On My Weary Mind
TTITLE11=Joe WIlliams - Bye Bye Baby Blues
EXTD=
EXTT0=
EXTT1=
EXTT2=
EXTT3=
EXTT4=
EXTT5=
EXTT6=
EXTT7=
EXTT8=
EXTT9=
EXTT10=
EXTT11=
PLAYORDER=
